<?xml version="1.0" encoding="utf-8"?>
<!-- Generator: Adobe Illustrator 24.0.0, SVG Export Plug-In . SVG Version: 6.00 Build 0)  -->
<svg version="1.1" id="Calque_1" xmlns="http://www.w3.org/2000/svg" xmlns:xlink="http://www.w3.org/1999/xlink" x="0px" y="0px"
	 viewBox="0 0 544.25 544.25" style="enable-background:new 0 0 544.25 544.25;" xml:space="preserve">
<style type="text/css">
	.st0{fill:#3C3C3B;}
	.st1{fill:#FFED00;}
</style>
<rect class="st0" width="544.25" height="544.25"/>
<g>
	<path class="st1" d="M357.63,480.61c-5.74,0-10.14-1.53-13.18-4.58c-3.05-3.05-5.47-5.65-7.26-7.8l-18.29-24.21
		c-13.99,4.66-29.95,6.99-47.88,6.99c-33.01,0-61.61-5.38-85.81-16.14c-24.21-10.76-43.23-26.99-57.03-48.69
		c-13.81-21.7-21.25-48.87-22.33-81.51c-0.36-15.42-0.54-30.94-0.54-46.54c0-15.61,0.18-31.12,0.54-46.54
		c1.08-32.28,8.61-59.45,22.6-81.51c13.99-22.06,33.17-38.64,57.57-49.77c24.39-11.11,52.73-16.68,85.01-16.68
		c32.63,0,61.15,5.56,85.54,16.68c24.39,11.12,43.66,27.71,57.84,49.77c14.16,22.06,21.6,49.23,22.33,81.51
		c0.72,15.42,1.08,30.93,1.08,46.54c0,15.6-0.36,31.12-1.08,46.54c-1.8,44.48-14.71,78.91-38.74,103.3l39.28,55.96
		c0.35,0.35,0.72,1.07,1.08,2.15c0.35,1.08,0.54,2.15,0.54,3.23c0.35,2.87-0.54,5.47-2.69,7.8c-2.15,2.33-4.84,3.5-8.07,3.5H357.63z
		 M271.01,373.54c19.01,0,34.52-5.73,46.54-17.22c12.01-11.48,18.37-29.77,19.1-54.88c0.71-15.78,1.07-30.67,1.07-44.66
		c0-13.99-0.36-28.51-1.07-43.58c-0.36-16.86-3.42-30.58-9.15-41.16c-5.74-10.58-13.37-18.38-22.87-23.41
		c-9.51-5.02-20.71-7.53-33.63-7.53c-12.2,0-23.14,2.51-32.82,7.53c-9.68,5.03-17.31,12.83-22.87,23.41
		c-5.56,10.58-8.7,24.3-9.41,41.16c-0.36,15.07-0.54,29.59-0.54,43.58c0,13.99,0.18,28.88,0.54,44.66
		c1.08,25.11,7.53,43.4,19.37,54.88C237.12,367.81,252.36,373.54,271.01,373.54z"/>
</g>
</svg>
